<?xml version="1.0" encoding="UTF-8"?>
<!-- Generator: Adobe Illustrator 25.2.3, SVG Export Plug-In . SVG Version: 6.00 Build 0)  -->
<svg version="1.1" id="Camada_1" xmlns="http://www.w3.org/2000/svg" xmlns:xlink="http://www.w3.org/1999/xlink" x="0px" y="0px" viewBox="0 0 250 100" style="enable-background:new 0 0 250 100;" xml:space="preserve">
<style type="text/css">
	.st0{fill:#213168;}
	.st1{fill:#6F6F6E;}
	.st2{fill:#F07F3C;}
</style>
<g>
	<path class="st0" d="M227.57,35.45l-0.47,6.53c-2.1-0.89-4.26-1.34-6.47-1.34c-3.5,0-5.96,0.86-7.38,2.57   c-1.42,1.71-2.13,4.61-2.13,8.69c0,4.16,0.78,7.17,2.33,9.04c1.55,1.87,3.89,2.8,7,2.8c2.6,0,4.9-0.54,6.88-1.63l0.52,5.95   c-2.25,1.48-5.25,2.22-8.98,2.22c-10.3,0-15.45-6.12-15.45-18.37c0-5.99,1.26-10.48,3.79-13.5c2.53-3.01,6.47-4.52,11.84-4.52   C222.17,33.88,225,34.4,227.57,35.45 M179.32,48.63h14.87c-0.12-5.67-2.55-8.51-7.29-8.51c-2.53,0-4.37,0.67-5.54,2.01   C180.2,43.47,179.52,45.63,179.32,48.63z M188.77,70.14c-5.87,0-10.16-1.55-12.89-4.64c-2.72-3.09-4.08-7.82-4.08-14.2   c0-5.64,1.25-9.96,3.76-12.97c2.51-3.01,6.27-4.52,11.28-4.52c4.47,0,7.95,1.35,10.44,4.05c2.49,2.7,3.73,6.77,3.73,12.21   c0,1.32-0.06,2.51-0.17,3.56H179.5c0.16,3.61,1.03,6.17,2.62,7.67c1.59,1.5,4.1,2.24,7.52,2.24c3.34,0,6.49-0.64,9.45-1.92   l0.87,6.12C196.7,69.34,192.97,70.14,188.77,70.14z M170.66,40.11h-8.22v19.53c0,2.92,1.54,4.37,4.61,4.37   c1.17,0,2.12-0.14,2.86-0.41l0.47,5.54c-1.4,0.62-3.23,0.93-5.48,0.93c-3.26,0-5.72-0.88-7.38-2.65c-1.65-1.77-2.48-4.3-2.48-7.61   V40.11h-4.37V34.4h4.61l1.34-8.22l5.83-0.58v8.8h8.22V40.11z M140.32,59.18v-5.13c-1.4-0.66-3.38-0.99-5.95-0.99   c-4.63,0-6.94,1.83-6.94,5.48c0,3.69,1.96,5.54,5.89,5.54c1.83,0,3.45-0.5,4.87-1.49C139.61,61.6,140.32,60.46,140.32,59.18z    M142.01,69.5l-0.64-3.73l-0.17-0.06c-2.29,2.92-5.6,4.37-9.91,4.37c-3.38,0-6.03-0.95-7.96-2.86c-1.92-1.9-2.89-4.76-2.89-8.57   c0-3.34,1.1-5.99,3.29-7.93c2.2-1.94,5.3-2.92,9.3-2.92c2.57,0,4.99,0.37,7.29,1.11v-2.62c0-2.18-0.57-3.74-1.72-4.69   s-3.02-1.43-5.63-1.43c-3.46,0-6.7,0.66-9.74,1.98l-0.64-6.12c3.46-1.52,7.37-2.27,11.72-2.27c4.82,0,8.25,1.08,10.29,3.24   c2.04,2.16,3.06,5.63,3.06,10.41v22.1H142.01z M116.32,69.5h-7.4V46.7c0-4.08-2.06-6.12-6.18-6.12c-1.79,0-3.23,0.49-4.31,1.46   c-1.09,0.97-1.63,2.39-1.63,4.26v23.2h-7.4v-23.2c0-3.85-1.98-5.77-5.95-5.77c-1.24,0-2.44,0.29-3.59,0.87   c-1.15,0.58-2.03,1.36-2.65,2.33V69.5h-7.4V34.57l5.31-0.35l1.28,3.5c2.53-2.6,5.54-3.91,9.04-3.91c4.47,0,7.6,1.67,9.39,5.01   c2.14-3.34,5.44-5.01,9.91-5.01c3.54,0,6.36,1.09,8.45,3.27c2.1,2.18,3.15,5.34,3.15,9.5V69.5z M43.88,48.63h14.87   c-0.12-5.67-2.55-8.51-7.29-8.51c-2.53,0-4.37,0.67-5.54,2.01C44.75,43.47,44.07,45.63,43.88,48.63z M53.32,70.14   c-5.87,0-10.16-1.55-12.89-4.64c-2.72-3.09-4.08-7.82-4.08-14.2c0-5.64,1.25-9.96,3.76-12.97c2.51-3.01,6.27-4.52,11.28-4.52   c4.47,0,7.95,1.35,10.44,4.05c2.49,2.7,3.73,6.77,3.73,12.21c0,1.32-0.06,2.51-0.17,3.56H44.05c0.16,3.61,1.03,6.17,2.62,7.67   c1.59,1.5,4.1,2.24,7.52,2.24c3.34,0,6.49-0.64,9.45-1.92l0.87,6.12C61.25,69.34,57.52,70.14,53.32,70.14z M24.96,39.18   c0-2.41-0.52-4.1-1.57-5.07c-1.05-0.97-2.8-1.46-5.25-1.46h-7.46v13.41h7.23c2.53,0,4.33-0.51,5.42-1.52   C24.41,43.53,24.96,41.75,24.96,39.18z M33.3,38.89c0,3.19-0.68,5.8-2.04,7.84c-1.36,2.04-3.3,3.37-5.83,3.99L36.21,69.5h-9.45   l-8.63-17.2h-7.46v17.2H2.63V25.77h15.45c5.17,0,9,1.07,11.49,3.21C32.05,31.12,33.3,34.42,33.3,38.89z"/>
	<path class="st1" d="M133.62,82.42c-0.25,0.36-0.38,1.02-0.38,1.97c0,0.95,0.13,1.61,0.38,1.97c0.25,0.36,0.69,0.54,1.31,0.54   c0.61,0,1.04-0.18,1.29-0.54c0.25-0.36,0.37-1.02,0.37-1.97c0-0.95-0.12-1.61-0.37-1.97c-0.25-0.36-0.68-0.54-1.29-0.54   C134.31,81.87,133.87,82.06,133.62,82.42 M138.19,84.39c0,1.36-0.26,2.34-0.77,2.93c-0.51,0.6-1.34,0.89-2.49,0.89   c-1.15,0-1.99-0.3-2.51-0.9c-0.53-0.6-0.79-1.58-0.79-2.93c0-1.34,0.26-2.32,0.79-2.93c0.53-0.61,1.37-0.91,2.51-0.91   c1.15,0,1.98,0.3,2.49,0.9C137.93,82.06,138.19,83.04,138.19,84.39z M130.11,78.98c0,0.48-0.31,0.72-0.92,0.72   c-0.33,0-0.56-0.06-0.71-0.17c-0.15-0.11-0.22-0.3-0.22-0.56c0-0.49,0.31-0.73,0.93-0.73C129.8,78.24,130.11,78.49,130.11,78.98z    M129.99,80.65v7.41c0,1.31-0.65,1.97-1.94,1.97c-0.33,0-0.65-0.05-0.94-0.16l0.09-1.12c0.15,0.05,0.31,0.07,0.48,0.07   c0.51,0,0.77-0.27,0.77-0.81v-7.27L129.99,80.65z M122.23,83.67h3.12c-0.02-1.19-0.53-1.79-1.53-1.79c-0.53,0-0.92,0.14-1.16,0.42   C122.42,82.59,122.28,83.04,122.23,83.67z M124.22,88.18c-1.23,0-2.13-0.32-2.7-0.97c-0.57-0.65-0.86-1.64-0.86-2.98   c0-1.18,0.26-2.09,0.79-2.72c0.53-0.63,1.31-0.95,2.37-0.95c0.94,0,1.67,0.28,2.19,0.85c0.52,0.57,0.78,1.42,0.78,2.56   c0,0.28-0.01,0.53-0.04,0.75h-4.47c0.03,0.76,0.22,1.29,0.55,1.61c0.33,0.31,0.86,0.47,1.58,0.47c0.7,0,1.36-0.13,1.98-0.4   l0.18,1.28C125.88,88.02,125.1,88.18,124.22,88.18z M117.26,88.05h-1.55v-7.31l1.25-0.07l0.13,1.38h0.04   c0.46-0.98,1.17-1.47,2.12-1.47c0.3,0,0.56,0.03,0.77,0.1l-0.1,1.58c-0.26-0.08-0.52-0.12-0.77-0.12c-0.55,0-1,0.2-1.35,0.6   c-0.35,0.4-0.53,0.94-0.53,1.61V88.05z M112.5,85.88v-1.08c-0.29-0.14-0.71-0.21-1.25-0.21c-0.97,0-1.45,0.38-1.45,1.15   c0,0.77,0.41,1.16,1.23,1.16c0.38,0,0.72-0.1,1.02-0.31C112.35,86.39,112.5,86.15,112.5,85.88z M112.86,88.05l-0.13-0.78   l-0.04-0.01c-0.48,0.61-1.17,0.92-2.08,0.92c-0.71,0-1.27-0.2-1.67-0.6c-0.4-0.4-0.61-1-0.61-1.8c0-0.7,0.23-1.26,0.69-1.66   c0.46-0.41,1.11-0.61,1.95-0.61c0.54,0,1.05,0.08,1.53,0.23v-0.55c0-0.46-0.12-0.78-0.36-0.98c-0.24-0.2-0.63-0.3-1.18-0.3   c-0.73,0-1.41,0.14-2.04,0.42l-0.13-1.28c0.73-0.32,1.54-0.48,2.46-0.48c1.01,0,1.73,0.23,2.16,0.68c0.43,0.45,0.64,1.18,0.64,2.18   v4.63H112.86z M106.02,80.69h1.7l-2.74,7.36h-1.82l-2.74-7.36h1.71l1.64,5.04l0.29,0.94h0.04l0.28-0.94L106.02,80.69z M94.36,85.88   v-1.08c-0.29-0.14-0.71-0.21-1.25-0.21c-0.97,0-1.45,0.38-1.45,1.15c0,0.77,0.41,1.16,1.23,1.16c0.38,0,0.72-0.1,1.02-0.31   C94.21,86.39,94.36,86.15,94.36,85.88z M94.71,88.05l-0.13-0.78l-0.04-0.01c-0.48,0.61-1.17,0.92-2.08,0.92   c-0.71,0-1.27-0.2-1.67-0.6c-0.4-0.4-0.61-1-0.61-1.8c0-0.7,0.23-1.26,0.69-1.66c0.46-0.41,1.11-0.61,1.95-0.61   c0.54,0,1.05,0.08,1.53,0.23v-0.55c0-0.46-0.12-0.78-0.36-0.98c-0.24-0.2-0.63-0.3-1.18-0.3c-0.73,0-1.41,0.14-2.04,0.42   l-0.13-1.28c0.73-0.32,1.54-0.48,2.46-0.48c1.01,0,1.73,0.23,2.16,0.68c0.43,0.45,0.64,1.18,0.64,2.18v4.63H94.71z M86.78,88.05   h-1.55v-7.31l1.25-0.07l0.13,1.38h0.04c0.46-0.98,1.17-1.47,2.12-1.47c0.3,0,0.56,0.03,0.77,0.1l-0.1,1.58   c-0.26-0.08-0.52-0.12-0.77-0.12c-0.55,0-1,0.2-1.35,0.6c-0.35,0.4-0.53,0.94-0.53,1.61V88.05z M82.02,85.88v-1.08   c-0.29-0.14-0.71-0.21-1.25-0.21c-0.97,0-1.45,0.38-1.45,1.15c0,0.77,0.41,1.16,1.23,1.16c0.38,0,0.72-0.1,1.02-0.31   C81.87,86.39,82.02,86.15,82.02,85.88z M82.38,88.05l-0.13-0.78l-0.04-0.01c-0.48,0.61-1.17,0.92-2.08,0.92   c-0.71,0-1.27-0.2-1.67-0.6c-0.4-0.4-0.61-1-0.61-1.8c0-0.7,0.23-1.26,0.69-1.66c0.46-0.41,1.11-0.61,1.95-0.61   c0.54,0,1.05,0.08,1.53,0.23v-0.55c0-0.46-0.12-0.78-0.36-0.98c-0.24-0.2-0.63-0.3-1.18-0.3c-0.73,0-1.41,0.14-2.04,0.42   l-0.13-1.28c0.73-0.32,1.54-0.48,2.46-0.48c1.01,0,1.73,0.23,2.16,0.68c0.43,0.45,0.64,1.18,0.64,2.18v4.63H82.38z M75.18,84.34   c0-0.9-0.13-1.52-0.38-1.86c-0.25-0.34-0.66-0.51-1.22-0.51c-0.67,0-1.17,0.24-1.5,0.72v3.41c0.31,0.5,0.79,0.75,1.45,0.75   c0.54,0,0.95-0.18,1.23-0.54C75.04,85.95,75.18,85.3,75.18,84.34z M76.78,84.36c0,1.29-0.25,2.25-0.75,2.88   c-0.5,0.63-1.2,0.95-2.11,0.95c-0.79,0-1.4-0.23-1.83-0.68l-0.04,0.01l0.02,0.99v1.39h-1.58v-9.16l1.1-0.07l0.31,0.7   c0.55-0.53,1.25-0.79,2.08-0.79c0.95,0,1.65,0.29,2.11,0.87C76.55,82.01,76.78,82.99,76.78,84.36z M63.84,85.88v-1.08   c-0.29-0.14-0.71-0.21-1.25-0.21c-0.97,0-1.45,0.38-1.45,1.15c0,0.77,0.41,1.16,1.23,1.16c0.38,0,0.72-0.1,1.02-0.31   C63.69,86.39,63.84,86.15,63.84,85.88z M64.2,88.05l-0.13-0.78l-0.04-0.01c-0.48,0.61-1.17,0.92-2.08,0.92   c-0.71,0-1.27-0.2-1.67-0.6c-0.4-0.4-0.61-1-0.61-1.8c0-0.7,0.23-1.26,0.69-1.66c0.46-0.41,1.11-0.61,1.95-0.61   c0.54,0,1.05,0.08,1.53,0.23v-0.55c0-0.46-0.12-0.78-0.36-0.98c-0.24-0.2-0.63-0.3-1.18-0.3c-0.73,0-1.41,0.14-2.04,0.42   l-0.13-1.28c0.73-0.32,1.54-0.48,2.46-0.48c1.01,0,1.73,0.23,2.16,0.68c0.43,0.45,0.64,1.18,0.64,2.18v4.63H64.2z M58.11,78.99   c0,0.48-0.31,0.72-0.93,0.72c-0.32,0-0.55-0.06-0.7-0.17c-0.15-0.11-0.23-0.3-0.23-0.56c0-0.5,0.31-0.75,0.93-0.75   C57.8,78.24,58.11,78.49,58.11,78.99z M57.96,88.05h-1.58v-7.31l1.58-0.09V88.05z M51.64,81.76c-0.43,0-0.74,0.09-0.92,0.26   c-0.18,0.17-0.27,0.44-0.27,0.82c0,0.4,0.1,0.68,0.3,0.84c0.2,0.16,0.49,0.24,0.86,0.24c0.46,0,0.79-0.08,0.97-0.25   c0.18-0.17,0.27-0.44,0.27-0.83c0-0.39-0.09-0.67-0.28-0.83C52.37,81.85,52.06,81.76,51.64,81.76z M52.32,87.24l-1.77-0.13   c-0.29,0.24-0.44,0.51-0.44,0.78c0,0.63,0.52,0.94,1.55,0.94c0.71,0,1.2-0.08,1.48-0.23c0.28-0.15,0.42-0.37,0.42-0.65   c0-0.22-0.09-0.39-0.26-0.49C53.13,87.35,52.81,87.27,52.32,87.24z M51.63,85.02c-0.36,0-0.68-0.03-0.97-0.09   c-0.26,0.11-0.39,0.25-0.39,0.44c0,0.24,0.18,0.38,0.55,0.4l1.77,0.12c0.85,0.06,1.45,0.23,1.82,0.53c0.37,0.3,0.55,0.73,0.55,1.29   c0,1.54-1.09,2.31-3.26,2.31c-0.99,0-1.72-0.18-2.2-0.53c-0.48-0.35-0.72-0.82-0.72-1.42c0-0.5,0.21-0.92,0.64-1.27   c-0.38-0.24-0.57-0.6-0.57-1.05c0-0.55,0.3-0.95,0.9-1.2l0.01-0.02c-0.56-0.36-0.84-0.93-0.84-1.72c0-1.5,0.9-2.25,2.71-2.25   c0.77,0,1.38,0.14,1.82,0.43l1.22-0.44L55,81.32l-0.82,0.61c0.1,0.24,0.15,0.54,0.15,0.88c0,0.73-0.21,1.27-0.64,1.64   C53.27,84.83,52.58,85.02,51.63,85.02z M43.07,82.42c-0.25,0.36-0.38,1.02-0.38,1.97c0,0.95,0.13,1.61,0.38,1.97   c0.25,0.36,0.69,0.54,1.31,0.54c0.61,0,1.04-0.18,1.29-0.54c0.25-0.36,0.37-1.02,0.37-1.97c0-0.95-0.12-1.61-0.37-1.97   c-0.25-0.36-0.68-0.54-1.29-0.54C43.76,81.87,43.32,82.06,43.07,82.42z M47.64,84.39c0,1.36-0.26,2.34-0.77,2.93   c-0.51,0.6-1.34,0.89-2.49,0.89c-1.15,0-1.99-0.3-2.51-0.9c-0.53-0.6-0.79-1.58-0.79-2.93c0-1.34,0.26-2.32,0.79-2.93   c0.53-0.61,1.37-0.91,2.51-0.91c1.15,0,1.98,0.3,2.49,0.9C47.39,82.06,47.64,83.04,47.64,84.39z M39.5,88.05h-1.56v-9.57l1.56-0.09   V88.05z M31.78,82.42c-0.25,0.36-0.38,1.02-0.38,1.97c0,0.95,0.13,1.61,0.38,1.97c0.25,0.36,0.69,0.54,1.31,0.54   c0.61,0,1.04-0.18,1.29-0.54c0.25-0.36,0.37-1.02,0.37-1.97c0-0.95-0.12-1.61-0.37-1.97c-0.25-0.36-0.68-0.54-1.29-0.54   C32.47,81.87,32.04,82.06,31.78,82.42z M36.36,84.39c0,1.36-0.26,2.34-0.77,2.93c-0.51,0.6-1.34,0.89-2.49,0.89   c-1.15,0-1.99-0.3-2.51-0.9c-0.53-0.6-0.79-1.58-0.79-2.93c0-1.34,0.26-2.32,0.79-2.93c0.53-0.61,1.37-0.91,2.51-0.91   c1.15,0,1.98,0.3,2.49,0.9C36.1,82.06,36.36,83.04,36.36,84.39z M28.51,88.05h-1.55v-4.76c0-0.88-0.47-1.32-1.41-1.32   c-0.29,0-0.56,0.06-0.84,0.18c-0.27,0.12-0.48,0.29-0.63,0.49v5.4h-1.55v-7.32l1.11-0.09l0.24,0.71c0.57-0.53,1.27-0.79,2.09-0.79   c0.79,0,1.41,0.23,1.86,0.7c0.45,0.47,0.67,1.14,0.67,2.02V88.05z M21.15,80.91l-0.1,1.37C20.61,82.09,20.16,82,19.69,82   c-0.73,0-1.25,0.18-1.55,0.54c-0.3,0.36-0.45,0.97-0.45,1.82c0,0.87,0.16,1.5,0.49,1.89c0.33,0.39,0.82,0.59,1.47,0.59   c0.55,0,1.03-0.11,1.44-0.34l0.11,1.25c-0.47,0.31-1.1,0.46-1.88,0.46c-2.16,0-3.24-1.28-3.24-3.85c0-1.26,0.26-2.2,0.79-2.83   c0.53-0.63,1.36-0.95,2.48-0.95C20.01,80.58,20.61,80.69,21.15,80.91z M10.55,83.67h3.12c-0.02-1.19-0.53-1.79-1.53-1.79   c-0.53,0-0.92,0.14-1.16,0.42C10.73,82.59,10.59,83.04,10.55,83.67z M12.53,88.18c-1.23,0-2.13-0.32-2.7-0.97   c-0.57-0.65-0.86-1.64-0.86-2.98c0-1.18,0.26-2.09,0.79-2.72c0.53-0.63,1.31-0.95,2.37-0.95c0.94,0,1.67,0.28,2.19,0.85   c0.52,0.57,0.78,1.42,0.78,2.56c0,0.28-0.01,0.53-0.04,0.75h-4.47c0.03,0.76,0.22,1.29,0.55,1.61c0.33,0.31,0.86,0.47,1.58,0.47   c0.7,0,1.36-0.13,1.98-0.4l0.18,1.28C14.19,88.02,13.41,88.18,12.53,88.18z M8.91,80.44H6.33v7.6H4.62v-7.6H2.04l0.04-1.56h6.8   L8.91,80.44z"/>
	<polygon class="st2" points="141.83,23.2 141.83,10.03 248.19,10.03 248.19,89.93 141.83,89.93 141.83,76.76 146.23,76.76    146.23,85.53 243.79,85.53 243.79,14.43 146.23,14.43 146.23,23.2  "/>
</g>
</svg>
