<svg version="1.1" id="Camada_1" xmlns="http://www.w3.org/2000/svg" xmlns:xlink="http://www.w3.org/1999/xlink" x="0px" y="0px"
	 viewBox="0 0 276 95" style="enable-background:new 0 0 276 95;" xml:space="preserve">
<style type="text/css">
	.st0{fill:#FFFFFF;}
</style>
<g>
	<path class="st0" d="M247.8,31.2l-0.5,7c-2.3-1-4.6-1.4-7-1.4c-3.8,0-6.4,0.9-8,2.8c-1.5,1.8-2.3,5-2.3,9.4c0,4.5,0.8,7.7,2.5,9.7
		c1.7,2,4.2,3,7.5,3c2.8,0,5.3-0.6,7.4-1.8l0.6,6.4c-2.4,1.6-5.7,2.4-9.7,2.4c-11.1,0-16.7-6.6-16.7-19.8c0-6.5,1.4-11.3,4.1-14.6
		c2.7-3.2,7-4.9,12.8-4.9C241.9,29.5,245,30.1,247.8,31.2 M195.7,45.4h16c-0.1-6.1-2.7-9.2-7.9-9.2c-2.7,0-4.7,0.7-6,2.2
		C196.7,39.9,196,42.2,195.7,45.4z M205.9,68.6c-6.3,0-11-1.7-13.9-5c-2.9-3.3-4.4-8.4-4.4-15.3c0-6.1,1.4-10.7,4.1-14
		c2.7-3.2,6.8-4.9,12.2-4.9c4.8,0,8.6,1.5,11.3,4.4c2.7,2.9,4,7.3,4,13.2c0,1.4-0.1,2.7-0.2,3.8h-23c0.2,3.9,1.1,6.7,2.8,8.3
		c1.7,1.6,4.4,2.4,8.1,2.4c3.6,0,7-0.7,10.2-2.1l0.9,6.6C214.5,67.8,210.5,68.6,205.9,68.6z M186.4,36.3h-8.9v21.1
		c0,3.1,1.7,4.7,5,4.7c1.3,0,2.3-0.1,3.1-0.4l0.5,6c-1.5,0.7-3.5,1-5.9,1c-3.5,0-6.2-1-8-2.9c-1.8-1.9-2.7-4.6-2.7-8.2V36.3h-4.7
		v-6.2h5l1.4-8.9l6.3-0.6v9.5h8.9V36.3z M153.7,56.8v-5.5c-1.5-0.7-3.6-1.1-6.4-1.1c-5,0-7.5,2-7.5,5.9c0,4,2.1,6,6.3,6
		c2,0,3.7-0.5,5.2-1.6C152.9,59.4,153.7,58.2,153.7,56.8z M155.5,67.9l-0.7-4l-0.2-0.1c-2.5,3.1-6,4.7-10.7,4.7
		c-3.6,0-6.5-1-8.6-3.1c-2.1-2.1-3.1-5.1-3.1-9.2c0-3.6,1.2-6.5,3.6-8.5c2.4-2.1,5.7-3.1,10-3.1c2.8,0,5.4,0.4,7.9,1.2v-2.8
		c0-2.3-0.6-4-1.9-5.1c-1.2-1-3.3-1.5-6.1-1.5c-3.7,0-7.2,0.7-10.5,2.1l-0.7-6.6c3.7-1.6,7.9-2.5,12.6-2.5c5.2,0,8.9,1.2,11.1,3.5
		c2.2,2.3,3.3,6.1,3.3,11.2v23.8H155.5z M127.8,67.9h-8V43.4c0-4.4-2.2-6.6-6.7-6.6c-1.9,0-3.5,0.5-4.7,1.6c-1.2,1-1.8,2.6-1.8,4.6
		v25h-8v-25c0-4.1-2.1-6.2-6.4-6.2c-1.3,0-2.6,0.3-3.9,0.9c-1.2,0.6-2.2,1.5-2.9,2.5v27.8h-8V30.3l5.7-0.4l1.4,3.8
		c2.7-2.8,6-4.2,9.7-4.2c4.8,0,8.2,1.8,10.1,5.4c2.3-3.6,5.9-5.4,10.7-5.4c3.8,0,6.9,1.2,9.1,3.5c2.3,2.3,3.4,5.8,3.4,10.2V67.9z
		 M49.7,45.4h16c-0.1-6.1-2.7-9.2-7.9-9.2c-2.7,0-4.7,0.7-6,2.2C50.7,39.9,49.9,42.2,49.7,45.4z M59.9,68.6c-6.3,0-11-1.7-13.9-5
		c-2.9-3.3-4.4-8.4-4.4-15.3c0-6.1,1.4-10.7,4.1-14c2.7-3.2,6.8-4.9,12.2-4.9c4.8,0,8.6,1.5,11.3,4.4c2.7,2.9,4,7.3,4,13.2
		c0,1.4-0.1,2.7-0.2,3.8h-23c0.2,3.9,1.1,6.7,2.8,8.3c1.7,1.6,4.4,2.4,8.1,2.4c3.6,0,7-0.7,10.2-2.1l0.9,6.6
		C68.4,67.8,64.4,68.6,59.9,68.6z M29.3,35.3c0-2.6-0.6-4.4-1.7-5.5c-1.1-1-3-1.6-5.7-1.6h-8v14.5h7.8c2.7,0,4.7-0.5,5.8-1.6
		C28.7,39.9,29.3,38,29.3,35.3z M38.3,34.9c0,3.4-0.7,6.3-2.2,8.5c-1.5,2.2-3.6,3.6-6.3,4.3l11.6,20.2H31.3L22,49.4h-8v18.5H5.2
		V20.8h16.7c5.6,0,9.7,1.2,12.4,3.5C37,26.6,38.3,30.1,38.3,34.9z"/>
	<path class="st0" d="M146.4,81.9c-0.3,0.4-0.4,1.1-0.4,2.1c0,1,0.1,1.7,0.4,2.1c0.3,0.4,0.7,0.6,1.4,0.6c0.7,0,1.1-0.2,1.4-0.6
		c0.3-0.4,0.4-1.1,0.4-2.1c0-1-0.1-1.7-0.4-2.1c-0.3-0.4-0.7-0.6-1.4-0.6C147.2,81.3,146.7,81.5,146.4,81.9 M151.4,84
		c0,1.5-0.3,2.5-0.8,3.2c-0.6,0.6-1.4,1-2.7,1c-1.2,0-2.1-0.3-2.7-1c-0.6-0.6-0.9-1.7-0.9-3.2c0-1.4,0.3-2.5,0.9-3.2
		c0.6-0.7,1.5-1,2.7-1c1.2,0,2.1,0.3,2.7,1C151.1,81.5,151.4,82.5,151.4,84z M142.7,78.2c0,0.5-0.3,0.8-1,0.8
		c-0.4,0-0.6-0.1-0.8-0.2c-0.2-0.1-0.2-0.3-0.2-0.6c0-0.5,0.3-0.8,1-0.8C142.3,77.4,142.7,77.6,142.7,78.2z M142.5,80v8
		c0,1.4-0.7,2.1-2.1,2.1c-0.4,0-0.7-0.1-1-0.2l0.1-1.2c0.2,0.1,0.3,0.1,0.5,0.1c0.6,0,0.8-0.3,0.8-0.9v-7.8L142.5,80z M134.2,83.2
		h3.4c0-1.3-0.6-1.9-1.6-1.9c-0.6,0-1,0.2-1.3,0.5C134.4,82.1,134.2,82.5,134.2,83.2z M136.3,88.1c-1.3,0-2.3-0.3-2.9-1
		c-0.6-0.7-0.9-1.8-0.9-3.2c0-1.3,0.3-2.3,0.9-2.9c0.6-0.7,1.4-1,2.6-1c1,0,1.8,0.3,2.4,0.9c0.6,0.6,0.8,1.5,0.8,2.8
		c0,0.3,0,0.6,0,0.8h-4.8c0,0.8,0.2,1.4,0.6,1.7c0.4,0.3,0.9,0.5,1.7,0.5c0.8,0,1.5-0.1,2.1-0.4l0.2,1.4
		C138.1,87.9,137.3,88.1,136.3,88.1z M128.8,87.9h-1.7v-7.9l1.3-0.1l0.1,1.5h0c0.5-1.1,1.3-1.6,2.3-1.6c0.3,0,0.6,0,0.8,0.1
		l-0.1,1.7c-0.3-0.1-0.6-0.1-0.8-0.1c-0.6,0-1.1,0.2-1.5,0.6c-0.4,0.4-0.6,1-0.6,1.7V87.9z M123.7,85.6v-1.2
		c-0.3-0.1-0.8-0.2-1.3-0.2c-1,0-1.6,0.4-1.6,1.2c0,0.8,0.4,1.3,1.3,1.3c0.4,0,0.8-0.1,1.1-0.3C123.5,86.2,123.7,85.9,123.7,85.6z
		 M124.1,87.9l-0.1-0.8l0,0c-0.5,0.7-1.3,1-2.2,1c-0.8,0-1.4-0.2-1.8-0.6c-0.4-0.4-0.7-1.1-0.7-1.9c0-0.8,0.2-1.4,0.7-1.8
		c0.5-0.4,1.2-0.7,2.1-0.7c0.6,0,1.1,0.1,1.6,0.3v-0.6c0-0.5-0.1-0.8-0.4-1.1c-0.3-0.2-0.7-0.3-1.3-0.3c-0.8,0-1.5,0.1-2.2,0.4
		l-0.1-1.4c0.8-0.3,1.7-0.5,2.6-0.5c1.1,0,1.9,0.2,2.3,0.7c0.5,0.5,0.7,1.3,0.7,2.4v5H124.1z M116.7,80h1.8l-3,7.9h-2l-3-7.9h1.8
		l1.8,5.4l0.3,1h0l0.3-1L116.7,80z M104.1,85.6v-1.2c-0.3-0.1-0.8-0.2-1.3-0.2c-1,0-1.6,0.4-1.6,1.2c0,0.8,0.4,1.3,1.3,1.3
		c0.4,0,0.8-0.1,1.1-0.3C104,86.2,104.1,85.9,104.1,85.6z M104.5,87.9l-0.1-0.8l0,0c-0.5,0.7-1.3,1-2.2,1c-0.8,0-1.4-0.2-1.8-0.6
		c-0.4-0.4-0.7-1.1-0.7-1.9c0-0.8,0.2-1.4,0.7-1.8c0.5-0.4,1.2-0.7,2.1-0.7c0.6,0,1.1,0.1,1.6,0.3v-0.6c0-0.5-0.1-0.8-0.4-1.1
		c-0.3-0.2-0.7-0.3-1.3-0.3c-0.8,0-1.5,0.1-2.2,0.4l-0.1-1.4c0.8-0.3,1.7-0.5,2.6-0.5c1.1,0,1.9,0.2,2.3,0.7
		c0.5,0.5,0.7,1.3,0.7,2.4v5H104.5z M96,87.9h-1.7v-7.9l1.3-0.1l0.1,1.5h0c0.5-1.1,1.3-1.6,2.3-1.6c0.3,0,0.6,0,0.8,0.1l-0.1,1.7
		c-0.3-0.1-0.6-0.1-0.8-0.1c-0.6,0-1.1,0.2-1.5,0.6c-0.4,0.4-0.6,1-0.6,1.7V87.9z M90.8,85.6v-1.2c-0.3-0.1-0.8-0.2-1.3-0.2
		c-1,0-1.6,0.4-1.6,1.2c0,0.8,0.4,1.3,1.3,1.3c0.4,0,0.8-0.1,1.1-0.3C90.7,86.2,90.8,85.9,90.8,85.6z M91.2,87.9l-0.1-0.8l0,0
		c-0.5,0.7-1.3,1-2.2,1c-0.8,0-1.4-0.2-1.8-0.6c-0.4-0.4-0.7-1.1-0.7-1.9c0-0.8,0.2-1.4,0.7-1.8c0.5-0.4,1.2-0.7,2.1-0.7
		c0.6,0,1.1,0.1,1.6,0.3v-0.6c0-0.5-0.1-0.8-0.4-1.1c-0.3-0.2-0.7-0.3-1.3-0.3c-0.8,0-1.5,0.1-2.2,0.4l-0.1-1.4
		c0.8-0.3,1.7-0.5,2.6-0.5c1.1,0,1.9,0.2,2.3,0.7c0.5,0.5,0.7,1.3,0.7,2.4v5H91.2z M83.4,83.9c0-1-0.1-1.6-0.4-2
		c-0.3-0.4-0.7-0.6-1.3-0.6c-0.7,0-1.3,0.3-1.6,0.8v3.7c0.3,0.5,0.9,0.8,1.6,0.8c0.6,0,1-0.2,1.3-0.6C83.3,85.7,83.4,85,83.4,83.9z
		 M85.2,84c0,1.4-0.3,2.4-0.8,3.1c-0.5,0.7-1.3,1-2.3,1c-0.9,0-1.5-0.2-2-0.7l0,0l0,1.1v1.5h-1.7v-9.9l1.2-0.1l0.3,0.8
		c0.6-0.6,1.3-0.9,2.2-0.9c1,0,1.8,0.3,2.3,0.9C84.9,81.4,85.2,82.5,85.2,84z M71.2,85.6v-1.2c-0.3-0.1-0.8-0.2-1.3-0.2
		c-1,0-1.6,0.4-1.6,1.2c0,0.8,0.4,1.3,1.3,1.3c0.4,0,0.8-0.1,1.1-0.3C71.1,86.2,71.2,85.9,71.2,85.6z M71.6,87.9l-0.1-0.8l0,0
		c-0.5,0.7-1.3,1-2.2,1c-0.8,0-1.4-0.2-1.8-0.6c-0.4-0.4-0.7-1.1-0.7-1.9c0-0.8,0.2-1.4,0.7-1.8c0.5-0.4,1.2-0.7,2.1-0.7
		c0.6,0,1.1,0.1,1.6,0.3v-0.6c0-0.5-0.1-0.8-0.4-1.1c-0.3-0.2-0.7-0.3-1.3-0.3c-0.8,0-1.5,0.1-2.2,0.4l-0.1-1.4
		c0.8-0.3,1.7-0.5,2.6-0.5c1.1,0,1.9,0.2,2.3,0.7c0.5,0.5,0.7,1.3,0.7,2.4v5H71.6z M65,78.2c0,0.5-0.3,0.8-1,0.8
		c-0.3,0-0.6-0.1-0.8-0.2c-0.2-0.1-0.2-0.3-0.2-0.6c0-0.5,0.3-0.8,1-0.8C64.7,77.4,65,77.6,65,78.2z M64.9,87.9h-1.7v-7.9l1.7-0.1
		V87.9z M58.1,81.2c-0.5,0-0.8,0.1-1,0.3c-0.2,0.2-0.3,0.5-0.3,0.9c0,0.4,0.1,0.7,0.3,0.9c0.2,0.2,0.5,0.3,0.9,0.3
		c0.5,0,0.8-0.1,1-0.3c0.2-0.2,0.3-0.5,0.3-0.9c0-0.4-0.1-0.7-0.3-0.9C58.9,81.3,58.5,81.2,58.1,81.2z M58.8,87.1l-1.9-0.1
		c-0.3,0.3-0.5,0.5-0.5,0.8c0,0.7,0.6,1,1.7,1c0.8,0,1.3-0.1,1.6-0.2c0.3-0.2,0.4-0.4,0.4-0.7c0-0.2-0.1-0.4-0.3-0.5
		C59.7,87.2,59.3,87.1,58.8,87.1z M58.1,84.7c-0.4,0-0.7,0-1-0.1c-0.3,0.1-0.4,0.3-0.4,0.5c0,0.3,0.2,0.4,0.6,0.4l1.9,0.1
		c0.9,0.1,1.6,0.3,2,0.6c0.4,0.3,0.6,0.8,0.6,1.4c0,1.7-1.2,2.5-3.5,2.5c-1.1,0-1.9-0.2-2.4-0.6C55.2,89.1,55,88.6,55,88
		c0-0.5,0.2-1,0.7-1.4c-0.4-0.3-0.6-0.6-0.6-1.1c0-0.6,0.3-1,1-1.3l0,0c-0.6-0.4-0.9-1-0.9-1.9c0-1.6,1-2.4,2.9-2.4
		c0.8,0,1.5,0.2,2,0.5l1.3-0.5l0.4,0.8l-0.9,0.7c0.1,0.3,0.2,0.6,0.2,0.9c0,0.8-0.2,1.4-0.7,1.8C59.8,84.5,59.1,84.7,58.1,84.7z
		 M48.8,81.9c-0.3,0.4-0.4,1.1-0.4,2.1c0,1,0.1,1.7,0.4,2.1c0.3,0.4,0.7,0.6,1.4,0.6c0.7,0,1.1-0.2,1.4-0.6C51.9,85.7,52,85,52,84
		c0-1-0.1-1.7-0.4-2.1c-0.3-0.4-0.7-0.6-1.4-0.6C49.6,81.3,49.1,81.5,48.8,81.9z M53.8,84c0,1.5-0.3,2.5-0.8,3.2
		c-0.6,0.6-1.4,1-2.7,1c-1.2,0-2.1-0.3-2.7-1c-0.6-0.6-0.9-1.7-0.9-3.2c0-1.4,0.3-2.5,0.9-3.2c0.6-0.7,1.5-1,2.7-1
		c1.2,0,2.1,0.3,2.7,1C53.5,81.5,53.8,82.5,53.8,84z M45,87.9h-1.7V77.6l1.7-0.1V87.9z M36.7,81.9c-0.3,0.4-0.4,1.1-0.4,2.1
		c0,1,0.1,1.7,0.4,2.1c0.3,0.4,0.7,0.6,1.4,0.6c0.7,0,1.1-0.2,1.4-0.6c0.3-0.4,0.4-1.1,0.4-2.1c0-1-0.1-1.7-0.4-2.1
		c-0.3-0.4-0.7-0.6-1.4-0.6C37.4,81.3,36.9,81.5,36.7,81.9z M41.6,84c0,1.5-0.3,2.5-0.8,3.2c-0.6,0.6-1.4,1-2.7,1
		c-1.2,0-2.1-0.3-2.7-1c-0.6-0.6-0.9-1.7-0.9-3.2c0-1.4,0.3-2.5,0.9-3.2c0.6-0.7,1.5-1,2.7-1c1.2,0,2.1,0.3,2.7,1
		C41.3,81.5,41.6,82.5,41.6,84z M33.1,87.9h-1.7v-5.1c0-0.9-0.5-1.4-1.5-1.4c-0.3,0-0.6,0.1-0.9,0.2c-0.3,0.1-0.5,0.3-0.7,0.5v5.8
		h-1.7V80l1.2-0.1l0.3,0.8c0.6-0.6,1.4-0.9,2.3-0.9c0.9,0,1.5,0.3,2,0.8c0.5,0.5,0.7,1.2,0.7,2.2V87.9z M25.2,80.2l-0.1,1.5
		c-0.5-0.2-1-0.3-1.5-0.3c-0.8,0-1.3,0.2-1.7,0.6c-0.3,0.4-0.5,1-0.5,2c0,0.9,0.2,1.6,0.5,2c0.4,0.4,0.9,0.6,1.6,0.6
		c0.6,0,1.1-0.1,1.6-0.4l0.1,1.3c-0.5,0.3-1.2,0.5-2,0.5c-2.3,0-3.5-1.4-3.5-4.2c0-1.4,0.3-2.4,0.9-3.1c0.6-0.7,1.5-1,2.7-1
		C24,79.9,24.6,80,25.2,80.2z M13.8,83.2h3.4c0-1.3-0.6-1.9-1.6-1.9c-0.6,0-1,0.2-1.3,0.5C14,82.1,13.8,82.5,13.8,83.2z M15.9,88.1
		c-1.3,0-2.3-0.3-2.9-1c-0.6-0.7-0.9-1.8-0.9-3.2c0-1.3,0.3-2.3,0.9-2.9c0.6-0.7,1.4-1,2.6-1c1,0,1.8,0.3,2.4,0.9
		c0.6,0.6,0.8,1.5,0.8,2.8c0,0.3,0,0.6,0,0.8h-4.8c0,0.8,0.2,1.4,0.6,1.7c0.4,0.3,0.9,0.5,1.7,0.5c0.8,0,1.5-0.1,2.1-0.4l0.2,1.4
		C17.7,87.9,16.9,88.1,15.9,88.1z M12,79.7H9.2v8.2H7.4v-8.2H4.6l0-1.7H12L12,79.7z"/>
	<polygon class="st0" points="155.3,18 155.3,3.8 270,3.8 270,90 155.3,90 155.3,75.8 160.1,75.8 160.1,85.2 265.3,85.2 265.3,8.6 
		160.1,8.6 160.1,18 	"/>
</g>
</svg>